<?xml version="1.0" encoding="UTF-8" standalone="no"?>
<svg
   width="24"
   height="24"
   fill-rule="evenodd"
   clip-rule="evenodd"
   version="1.1"
   id="svg1"
   sodipodi:docname="eraser.svg"
   inkscape:version="1.3.2 (091e20e, 2023-11-25)"
   xmlns:inkscape="http://www.inkscape.org/namespaces/inkscape"
   xmlns:sodipodi="http://sodipodi.sourceforge.net/DTD/sodipodi-0.dtd"
   xmlns="http://www.w3.org/2000/svg"
   xmlns:svg="http://www.w3.org/2000/svg">
  <defs
     id="defs1" />
  <path
       fill="#fbfbfc"
     d="M5.662 23l-5.369-5.365c-.195-.195-.293-.45-.293-.707 0-.256.098-.512.293-.707l14.929-14.928c.195-.194.451-.293.707-.293.255 0 .512.099.707.293l7.071 7.073c.196.195.293.451.293.708 0 .256-.097.511-.293.707l-11.216 11.219h5.514v2h-12.343zm3.657-2l-5.486-5.486-1.419 1.414 4.076 4.072h2.829zm6.605-17.581l-10.677 10.68 5.658 5.659 10.676-10.682-5.657-5.657z"
     id="path1" />
</svg>
