<?xml version="1.0" encoding="UTF-8" standalone="no"?>
<svg
   id="svg"
   version="1.1"
   width="60"
   height="42.186123"
   viewBox="0 0 60 42.18612"
   sodipodi:docname="piforge_icon.svg"
   inkscape:version="1.3.2 (091e20e, 2023-11-25)"
   xmlns:inkscape="http://www.inkscape.org/namespaces/inkscape"
   xmlns:sodipodi="http://sodipodi.sourceforge.net/DTD/sodipodi-0.dtd"
   xmlns="http://www.w3.org/2000/svg"
   xmlns:svg="http://www.w3.org/2000/svg">
  <defs
     id="defs1" />
  <sodipodi:namedview
     id="namedview1"
     pagecolor="#ffffff"
     bordercolor="#000000"
     borderopacity="0.25"
     inkscape:showpageshadow="2"
     inkscape:pageopacity="0.0"
     inkscape:pagecheckerboard="0"
     inkscape:deskcolor="#d1d1d1"
     inkscape:zoom="2.0736812"
     inkscape:cx="33.756394"
     inkscape:cy="51.116826"
     inkscape:window-width="1312"
     inkscape:window-height="449"
     inkscape:window-x="0"
     inkscape:window-y="38"
     inkscape:window-maximized="0"
     inkscape:current-layer="svg" />
  <g
     id="svgg"
     transform="matrix(0.40426852,0,0,0.40426852,1.0782599,1.2987077)">
    <path
       id="path1"
       d="M 4.045,2.677 C 3.239,3.082 2.397,3.973 2.062,4.774 c -0.353,0.847 -0.328,9.665 0.03,10.523 0.324,0.776 2.04,2.37 2.552,2.37 0.071,0 0.284,0.168 0.473,0.375 0.189,0.206 0.765,0.628 1.28,0.938 0.515,0.309 0.936,0.616 0.936,0.681 0,0.065 0.188,0.204 0.417,0.309 0.229,0.104 0.417,0.304 0.417,0.443 0,0.14 0.089,0.254 0.198,0.254 0.311,0 1.293,0.721 1.39,1.02 0.048,0.149 0.423,0.482 0.833,0.742 0.41,0.259 0.745,0.556 0.745,0.66 0,0.104 0.319,0.442 0.709,0.752 0.389,0.31 0.736,0.631 0.77,0.715 0.035,0.083 0.433,0.529 0.885,0.991 0.452,0.462 0.932,1.052 1.067,1.313 0.134,0.26 0.305,0.473 0.379,0.473 0.121,0 1.037,1.177 1.69,2.172 0.138,0.209 0.419,0.532 0.625,0.718 0.207,0.185 0.375,0.43 0.375,0.544 0,0.114 0.246,0.532 0.546,0.929 0.763,1.007 2.553,3.969 2.703,4.471 0.068,0.229 0.22,0.529 0.337,0.666 0.293,0.343 1.248,2.136 1.248,2.342 0,0.092 0.363,0.934 0.806,1.871 0.444,0.937 0.924,2.041 1.068,2.454 0.143,0.413 0.523,1.462 0.844,2.333 0.84,2.278 1.947,6.149 2.311,8.084 0.173,0.916 0.429,2.266 0.569,3 0.39,2.034 0.397,2.081 0.491,3.416 0.048,0.688 0.195,2.263 0.327,3.5 0.474,4.446 0.201,9.607 -0.53,10.05 -0.121,0.074 -0.22,0.303 -0.22,0.51 0,1.545 -3.448,5.967 -6.291,8.068 -0.573,0.424 -1.042,0.83 -1.042,0.904 0,0.074 -0.104,0.135 -0.231,0.135 -0.128,0 -0.623,0.269 -1.1,0.598 -1.001,0.688 -4.014,2.083 -5.345,2.474 -1.516,0.445 -1.401,0.074 -1.462,4.713 -0.077,5.872 -0.081,5.85 1.547,7.197 0.804,0.666 1.223,0.685 14.872,0.669 13.736,-0.015 14.018,-0.028 15.022,-0.696 1.302,-0.866 3.223,-1.937 3.821,-2.131 0.344,-0.112 1.055,-0.418 1.58,-0.68 0.524,-0.263 1.075,-0.477 1.224,-0.477 0.149,0 0.47,-0.106 0.713,-0.234 0.243,-0.129 0.93,-0.352 1.526,-0.497 0.595,-0.145 1.646,-0.423 2.333,-0.619 2.414,-0.686 6.086,-1.242 12,-1.818 2.075,-0.202 11.497,-0.201 13.417,0.001 0.825,0.087 2.25,0.233 3.166,0.324 0.917,0.091 2.117,0.247 2.667,0.346 0.55,0.098 1.862,0.319 2.917,0.49 1.054,0.17 0.503231,-0.06755 1.007231,0.07045 4.313,1.187 4.425,1.222 5.417,1.689 1.371,0.645 2.04,0.922 2.226,0.922 0.112,0 0.407,0.135 0.655,0.299 0.517,0.341 0.777,0.5 1.993999,1.217 0.481,0.284 0.875,0.572 0.875,0.64 0,0.501 0.993,0.536 14.826,0.519 l 13.924,-0.016 0.883,-0.606 c 1.344,-0.921 1.367,-1.023 1.367,-6.167 0,-4.892 -0.133,-5.523 -1.167,-5.548 -0.616,-0.014 -4.534,-1.793 -5.668,-2.573 -0.478,-0.329 -0.97,-0.598 -1.092,-0.598 -0.123,0 -0.283,-0.097 -0.357,-0.216 -0.073,-0.119 -0.583,-0.561 -1.133,-0.981 -1.837,-1.404 -4.417,-4.206 -4.417,-4.796 0,-0.095 -0.079,-0.174 -0.175,-0.174 -0.096,0 -0.254,-0.225 -0.35,-0.5 -0.096,-0.275 -0.242,-0.5 -0.324,-0.5 -0.083,0 -0.151,-0.093 -0.152,-0.208 -0.001,-0.115 -0.186,-0.583 -0.412,-1.042 -0.225,-0.458 -0.412,-0.927 -0.415,-1.041 -0.003,-0.115 -0.069,-0.209 -0.146,-0.209 -0.078,0 -0.148,-0.214 -0.155,-0.475 -0.008,-0.261 -0.141,-0.915 -0.298,-1.452 -0.279,-0.962 -0.271,-7.631 0.011,-9.406 0.051,-0.321 0.122,-0.883 0.157,-1.25 0.149,-1.573 0.307,-2.619 0.681,-4.5 0.218,-1.1 0.481,-2.488 0.584,-3.083 0.484,-2.795 2.894,-10.085 4.23,-12.796 0.329,-0.666 0.598,-1.288 0.598,-1.382 0,-0.093 0.276,-0.673 0.614,-1.288 0.338,-0.615 0.763,-1.418 0.945,-1.784 0.521,-1.052 2.293,-3.942 2.807,-4.58 0.257,-0.319 0.467,-0.676 0.467,-0.793 0,-0.118 0.206,-0.432 0.458,-0.698 0.252,-0.267 0.571,-0.652 0.709,-0.855 0.725,-1.076 1.712,-2.324 1.836,-2.324 0.078,0 0.184,-0.135 0.236,-0.3 0.053,-0.165 0.508,-0.74 1.012,-1.277 0.503,-0.537 0.917,-1.021 0.92,-1.075 0.002,-0.054 0.302,-0.319 0.666,-0.589 0.365,-0.269 0.663,-0.583 0.663,-0.696 0,-0.113 0.375,-0.449 0.833,-0.746 0.459,-0.297 0.834,-0.63 0.834,-0.739 0,-0.11 0.318,-0.415 0.708,-0.678 0.39,-0.263 0.87,-0.63 1.068,-0.814 0.626,-0.586 0.937,-0.823 1.799,-1.369 0.463,-0.293 0.994,-0.687 1.181,-0.875 0.186,-0.188 0.395,-0.342 0.465,-0.342 0.069,0 0.799,-0.392052 0.92043,-1.108906 -0.19613,-8.3089273 -0.035,-7.0984945 -0.0527,-11.1502056 -0.003,-0.6986571 0.0181,-1.9749051 -1.49276,-2.6427584 C 90.210531,2.0307404 44.677361,2.3393899 4.75,2.322 L 4.045,2.677 m 97.83723,11.283447 2.792,0.094 v 6.56 6.561 l -7.791999,0.002 c -4.285,10e-4 -7.96,0.047 -8.166,0.103 l -0.375,0.1 v 18.781 18.782 l 0.541,0.523 c 3.194,3.088 7.823,1.576 9.819,-3.207 1.106,-2.65 1.604999,-3.132 3.243999,-3.132 2.971,0 3.266,3.508 0.9,10.719 -4.287999,13.072 -18.528999,16.509 -24.837999,5.995 l -0.75,-1.25 -0.03,-23.5 c -0.017,-12.925 -0.036,-23.596 -0.042,-23.713 -0.02,-0.384 -13.742,-0.211 -14.13,0.177 C 62.748231,27.862447 64.442,39.735 64.357,73.375 L 64.333,82.5 H 58.5 52.667 V 55.429 c 0,-31.062 0.212,-27.709 -1.741,-27.529 -1.959,0.18 -3.351,0.593 -6.866,2.035 -1.063,0.437 -3.428,1.79 -5.042,2.886 -0.915,0.622 -1.824,1.521 -2.712,2.682 -1.103,1.444 -0.765,-1.072 0.609,-4.529 3.908,-9.835 6.403231,-14.979553 13.102231,-16.565553 1.672,-0.396 42.863,-0.752 51.864999,-0.448"
       stroke="none"
       fill="#646cfc"
       fill-rule="evenodd"
       sodipodi:nodetypes="cccsccscssccsccscsccscccsccccccccscssccccccccscccccccccccccccccccccccccccccccccccccccccccccccccccccccccccscccccccccccccccccccccccccsccccccc" />
  </g>
</svg>
