<?xml version="1.0" encoding="UTF-8" standalone="no"?>
<svg
   clip-rule="evenodd"
   fill-rule="evenodd"
   stroke-linejoin="round"
   stroke-miterlimit="2"
   viewBox="0 0 24 24"
   version="1.1"
   id="svg1"
   sodipodi:docname="pencil.svg"
   inkscape:version="1.3.2 (091e20e, 2023-11-25)"
   xmlns:inkscape="http://www.inkscape.org/namespaces/inkscape"
   xmlns:sodipodi="http://sodipodi.sourceforge.net/DTD/sodipodi-0.dtd"
   xmlns="http://www.w3.org/2000/svg"
   xmlns:svg="http://www.w3.org/2000/svg">
  <defs
     id="defs1" />
  <path
   fill="#fbfbfc"
     d="m9.134 19.319 11.587-11.588c.171-.171.279-.423.279-.684 0-.229-.083-.466-.28-.662l-3.115-3.104c-.185-.185-.429-.277-.672-.277s-.486.092-.672.277l-11.606 11.566c-.569 1.763-1.555 4.823-1.626 5.081-.02.075-.029.15-.029.224 0 .461.349.848.765.848.511 0 .991-.189 5.369-1.681zm-3.27-3.342 2.137 2.137-3.168 1.046zm.955-1.166 10.114-10.079 2.335 2.327-10.099 10.101z"
     fill-rule="nonzero"
     id="path1" />
</svg>
