<?xml version="1.0" encoding="UTF-8" standalone="no"?>
<svg
   fill="#ffffff"
   width="100"
   height="100"
   viewBox="0 0 6.25 6.25"
   stroke="#ffffff"
   version="1.1"
   id="svg1"
   sodipodi:docname="spinner.svg"
   inkscape:version="1.3.2 (091e20e, 2023-11-25)"
   xmlns:inkscape="http://www.inkscape.org/namespaces/inkscape"
   xmlns:sodipodi="http://sodipodi.sourceforge.net/DTD/sodipodi-0.dtd"
   xmlns="http://www.w3.org/2000/svg"
   xmlns:svg="http://www.w3.org/2000/svg">
  <defs
     id="defs1" />
  <sodipodi:namedview
     id="namedview1"
     pagecolor="#ffffff"
     bordercolor="#000000"
     borderopacity="0.25"
     inkscape:showpageshadow="2"
     inkscape:pageopacity="0.0"
     inkscape:pagecheckerboard="0"
     inkscape:deskcolor="#d1d1d1"
     inkscape:zoom="1.9569864"
     inkscape:cx="125.70348"
     inkscape:cy="42.92314"
     inkscape:window-width="1312"
     inkscape:window-height="449"
     inkscape:window-x="0"
     inkscape:window-y="38"
     inkscape:window-maximized="0"
     inkscape:current-layer="svg1" />
  <g
     id="vfd"
     stroke-width="0" />
  <g
     id="sdd"
     stroke-linecap="round"
     stroke-linejoin="round" />
  <g
     id="ssd"
     transform="matrix(0.15877761,0,0,0.15877761,-0.82502511,-0.82738961)">
    <path
       d="m 41.9,23.9 c -0.3,-6.1 -4,-11.8 -9.5,-14.4 -6,-2.7 -13.3,-1.6 -18.3,2.6 -4.8,4 -7,10.5 -5.6,16.6 1.3,6 6,10.9 11.9,12.5 7.1,2 13.6,-1.4 17.6,-7.2 -3.6,4.8 -9.1,8 -15.2,6.9 -6.1,-1.1 -11.1,-5.7 -12.5,-11.7 -1.5,-6.4 1.5,-13.1 7.2,-16.4 5.9,-3.4 14.2,-2.1 18.1,3.7 1,1.4 1.7,3.1 2,4.8 0.3,1.4 0.2,2.9 0.4,4.3 0.2,1.3 1.3,3 2.8,2.1 1.3,-0.8 1.2,-2.5 1.1,-3.8 0,-0.4 0.1,0.7 0,0 z"
       id="path1" />
  </g>
</svg>
