<?xml version="1.0" encoding="UTF-8" standalone="no"?>
<svg
   id="svg"
   version="1.1"
   width="400"
   height="101.24669437098602"
   viewBox="0, 0, 400,101.24669437098602"
   sodipodi:docname="piforge_icon.svg"
   inkscape:version="1.3.2 (091e20e, 2023-11-25)"
   xmlns:inkscape="http://www.inkscape.org/namespaces/inkscape"
   xmlns:sodipodi="http://sodipodi.sourceforge.net/DTD/sodipodi-0.dtd"
   xmlns="http://www.w3.org/2000/svg"
   xmlns:svg="http://www.w3.org/2000/svg">
  <defs
     id="defs1" />
  <sodipodi:namedview
     id="namedview1"
     pagecolor="#ffffff"
     bordercolor="#000000"
     borderopacity="0.25"
     inkscape:showpageshadow="2"
     inkscape:pageopacity="0.0"
     inkscape:pagecheckerboard="0"
     inkscape:deskcolor="#d1d1d1"
     inkscape:zoom="2.0736812"
     inkscape:cx="193.85815"
     inkscape:cy="54.010231"
     inkscape:window-width="1312"
     inkscape:window-height="449"
     inkscape:window-x="0"
     inkscape:window-y="38"
     inkscape:window-maximized="0"
     inkscape:current-layer="svg" />
  <g
     id="svgg">
    <path
       id="path0"
       d="M65.250 14.499 C 51.053 14.624,51.092 14.620,47.343 16.590 C 43.449 18.636,39.839 23.615,36.915 30.974 C 35.541 34.431,35.203 36.947,36.306 35.503 C 37.658 33.734,38.493 33.053,41.495 31.271 C 45.393 28.956,51.479 27.170,52.384 28.074 C 52.647 28.338,52.667 30.192,52.667 55.429 L 52.667 82.500 58.500 82.500 L 64.333 82.500 64.357 73.375 C 64.442 39.735,64.574 28.354,64.881 28.047 C 65.269 27.659,78.991 27.486,79.011 27.870 C 79.017 27.987,79.036 38.658,79.053 51.583 L 79.083 75.083 79.833 76.333 C 86.142 86.847,100.383 83.410,104.671 70.338 C 107.037 63.127,106.742 59.619,103.771 59.619 C 102.132 59.619,101.633 60.101,100.527 62.751 C 98.531 67.534,93.902 69.046,90.708 65.958 L 90.167 65.435 90.167 46.653 L 90.167 27.872 90.542 27.772 C 90.748 27.716,94.423 27.670,98.708 27.669 L 106.500 27.667 106.500 21.106 L 106.500 14.546 103.708 14.452 C 100.231 14.335,81.343 14.358,65.250 14.499 M216.917 25.248 C 216.733 25.281,215.796 25.394,214.833 25.500 C 212.761 25.727,211.766 25.975,209.750 26.767 C 205.239 28.537,201.837 31.362,198.931 35.750 C 197.688 37.626,196.222 40.356,195.976 41.250 C 195.900 41.525,195.533 42.646,195.161 43.741 C 194.788 44.837,194.417 46.224,194.336 46.825 C 194.255 47.425,194.067 48.742,193.917 49.750 C 193.350 53.562,193.734 61.083,194.674 64.583 C 195.567 67.908,197.372 72.169,198.603 73.856 C 198.913 74.280,199.167 74.702,199.167 74.793 C 199.167 75.437,202.631 79.118,204.500 80.461 C 205.096 80.889,205.621 81.283,205.667 81.336 C 205.713 81.390,206.521 81.825,207.463 82.304 C 213.728 85.488,222.768 85.415,229.167 82.130 C 230.037 81.683,231.027 81.096,231.365 80.825 C 231.704 80.555,232.050 80.333,232.134 80.333 C 232.469 80.333,235.734 77.204,236.403 76.241 C 236.598 75.961,237.037 75.391,237.379 74.974 C 237.720 74.557,238.000 74.167,238.000 74.108 C 238.000 74.048,238.375 73.423,238.833 72.717 C 239.292 72.012,239.667 71.367,239.667 71.284 C 239.667 71.201,239.972 70.490,240.346 69.703 C 242.284 65.624,243.134 60.114,242.941 52.882 C 242.826 48.542,242.521 46.733,241.135 42.167 C 240.814 41.107,239.053 37.403,238.522 36.670 C 238.235 36.274,238.000 35.887,238.000 35.809 C 238.000 35.240,234.946 31.669,233.174 30.167 C 232.134 29.285,229.414 27.530,228.875 27.393 C 228.668 27.340,228.239 27.164,227.921 27.002 C 225.692 25.866,219.232 24.836,216.917 25.248 M322.083 25.333 C 318.254 25.809,317.846 25.908,314.993 27.048 C 311.754 28.342,307.282 31.997,306.015 34.385 C 305.886 34.628,305.626 34.993,305.437 35.196 C 305.248 35.399,304.904 35.915,304.672 36.344 C 304.440 36.773,303.931 37.687,303.542 38.374 C 303.152 39.062,302.833 39.702,302.833 39.797 C 302.833 39.891,302.616 40.454,302.350 41.047 C 301.530 42.873,300.774 45.754,300.131 49.500 C 299.796 51.450,299.854 58.811,300.221 60.917 C 301.623 68.965,304.312 74.803,308.587 79.079 C 309.991 80.485,311.776 81.833,312.231 81.833 C 312.379 81.833,312.500 81.897,312.500 81.974 C 312.500 82.272,315.190 83.355,317.126 83.837 C 321.570 84.941,325.265 84.965,329.083 83.915 C 331.345 83.293,331.661 83.171,332.809 82.475 C 333.391 82.122,333.923 81.833,333.991 81.833 C 334.285 81.833,336.454 79.894,337.623 78.586 C 338.224 77.914,338.344 77.842,338.426 78.106 C 338.479 78.277,338.862 79.204,339.279 80.167 C 339.695 81.129,340.092 82.152,340.162 82.439 C 340.454 83.637,340.972 83.833,343.836 83.833 C 346.098 83.833,346.839 83.659,347.063 83.076 C 347.260 82.563,347.181 54.214,346.982 53.776 C 346.630 53.005,346.563 53.000,335.600 53.000 C 324.373 53.000,324.314 53.004,324.012 53.870 C 323.777 54.544,323.772 61.985,324.007 62.601 C 324.344 63.489,324.345 63.489,330.026 63.495 L 335.302 63.500 335.220 64.542 C 334.948 68.004,332.669 71.283,329.375 72.951 L 327.797 73.750 324.771 73.750 L 321.745 73.750 320.107 72.958 C 315.158 70.565,312.928 64.801,312.935 54.417 C 312.939 47.915,313.526 45.070,315.664 41.197 C 315.982 40.620,317.721 38.715,318.583 37.999 C 320.916 36.060,325.399 35.336,328.350 36.421 C 328.753 36.569,329.346 36.776,329.667 36.880 C 329.987 36.985,330.287 37.111,330.333 37.162 C 330.379 37.213,330.796 37.539,331.260 37.887 C 333.019 39.207,334.877 42.291,335.252 44.514 C 335.522 46.113,335.943 46.206,339.744 45.512 C 341.214 45.244,343.165 44.903,344.080 44.755 C 346.635 44.341,346.868 43.956,346.102 41.408 C 345.394 39.057,344.821 37.620,344.112 36.422 C 343.731 35.778,343.318 35.049,343.194 34.803 C 343.070 34.557,342.677 34.032,342.320 33.636 C 341.963 33.240,341.670 32.869,341.669 32.811 C 341.662 32.493,338.210 29.284,337.453 28.892 C 337.175 28.749,336.814 28.508,336.650 28.357 C 336.152 27.900,333.323 26.600,331.750 26.106 C 329.668 25.452,324.473 25.036,322.083 25.333 M156.553 26.168 C 155.752 26.490,155.781 24.934,155.868 62.463 L 155.950 97.859 156.395 98.305 L 156.840 98.750 161.962 98.801 C 164.779 98.828,167.333 98.805,167.638 98.749 C 168.748 98.544,168.701 99.540,168.568 78.985 L 168.448 60.508 177.885 60.462 C 186.687 60.420,187.342 60.397,187.619 60.119 C 188.017 59.721,188.080 50.581,187.688 50.109 C 187.480 49.858,186.594 49.833,177.980 49.833 L 168.500 49.833 168.500 43.417 L 168.500 37.000 180.558 37.000 C 192.604 37.000,192.615 37.000,192.933 36.649 C 193.229 36.322,193.250 35.986,193.250 31.579 L 193.250 26.860 192.846 26.430 L 192.442 26.000 174.679 26.011 C 164.865 26.016,156.754 26.087,156.553 26.168 M250.719 26.163 C 249.983 26.469,250.000 25.787,250.000 55.069 L 250.000 83.159 250.451 83.454 C 251.087 83.872,260.789 83.995,261.739 83.599 L 262.333 83.350 262.333 72.175 L 262.333 61.000 268.342 61.000 L 274.350 61.000 274.602 61.625 C 274.741 61.969,274.962 62.486,275.094 62.775 C 275.226 63.064,275.333 63.417,275.333 63.558 C 275.333 63.700,275.708 64.701,276.167 65.783 C 276.625 66.864,277.000 67.845,277.000 67.963 C 277.000 68.159,277.530 69.529,278.079 70.750 C 278.202 71.025,278.392 71.585,278.501 71.995 C 278.610 72.404,278.837 73.042,279.006 73.411 C 279.618 74.753,280.167 76.162,280.167 76.390 C 280.167 76.592,280.397 77.198,281.000 78.583 C 281.616 79.999,281.833 80.579,281.834 80.813 C 281.835 80.962,281.932 81.271,282.049 81.500 C 282.167 81.729,282.392 82.258,282.549 82.675 C 282.978 83.812,283.099 83.833,289.142 83.833 C 295.879 83.833,296.110 83.747,295.220 81.562 C 295.004 81.029,294.752 80.317,294.661 79.979 C 294.570 79.642,294.232 78.787,293.910 78.079 C 293.587 77.371,293.175 76.352,292.993 75.814 C 292.812 75.276,292.442 74.350,292.170 73.757 C 291.898 73.164,291.625 72.470,291.563 72.214 C 291.500 71.959,291.154 71.075,290.794 70.250 C 290.433 69.425,289.990 68.312,289.810 67.776 C 289.629 67.240,289.272 66.340,289.015 65.776 C 288.758 65.212,288.413 64.337,288.248 63.833 C 288.082 63.329,287.726 62.429,287.456 61.833 C 286.120 58.883,286.120 58.884,287.802 57.961 C 288.506 57.574,289.354 57.012,289.686 56.712 C 290.019 56.412,290.363 56.167,290.451 56.167 C 291.023 56.167,294.332 51.656,294.608 50.500 C 294.663 50.271,294.856 49.633,295.036 49.083 C 296.539 44.510,295.931 38.438,293.566 34.401 C 292.789 33.074,292.257 32.379,291.046 31.105 C 288.957 28.906,285.752 27.447,280.667 26.379 C 279.223 26.076,251.412 25.876,250.719 26.163 M356.782 26.117 C 356.617 26.160,356.410 26.381,356.324 26.608 C 356.135 27.104,356.109 82.985,356.298 83.281 C 356.634 83.810,357.440 83.833,375.266 83.833 C 394.636 83.833,394.197 83.853,394.419 82.968 C 394.472 82.755,394.493 80.531,394.466 78.026 L 394.417 73.470 394.023 73.152 C 393.644 72.845,393.185 72.833,381.065 72.833 L 368.500 72.833 368.500 66.254 L 368.500 59.674 378.513 59.629 C 388.206 59.585,388.535 59.573,388.763 59.260 C 389.194 58.670,389.103 50.173,388.660 49.698 L 388.320 49.333 378.410 49.333 L 368.500 49.333 368.500 43.000 L 368.500 36.667 380.996 36.667 L 393.492 36.667 393.788 36.216 C 394.095 35.748,394.333 28.541,394.085 27.208 C 393.841 25.892,395.516 25.998,375.177 26.019 C 365.225 26.030,356.948 26.074,356.782 26.117 M220.694 35.846 C 226.545 36.869,229.847 43.749,229.845 54.917 C 229.844 64.136,227.837 70.184,224.044 72.391 C 217.576 76.156,211.192 73.905,208.589 66.941 C 205.689 59.182,206.481 44.369,210.029 40.004 C 210.288 39.685,210.500 39.347,210.500 39.254 C 210.500 38.970,212.546 37.233,213.340 36.842 C 215.807 35.628,217.858 35.350,220.694 35.846 M277.583 36.811 C 278.784 37.083,279.944 37.536,280.167 37.819 C 280.212 37.878,280.565 38.170,280.950 38.470 C 281.335 38.769,281.777 39.255,281.933 39.549 C 282.089 39.843,282.357 40.353,282.529 40.682 C 283.388 42.326,283.193 45.526,282.143 47.026 C 281.973 47.269,281.833 47.541,281.833 47.631 C 281.833 47.720,281.590 47.983,281.292 48.213 C 280.994 48.444,280.593 48.782,280.401 48.965 C 278.988 50.312,277.378 50.553,269.292 50.626 L 262.333 50.690 262.333 43.595 L 262.333 36.500 269.292 36.504 C 275.402 36.508,276.413 36.545,277.583 36.811 M41.627 99.118 C 41.834 99.158,42.134 99.156,42.294 99.115 C 42.453 99.073,42.283 99.040,41.917 99.042 C 41.550 99.044,41.420 99.078,41.627 99.118 "
       stroke="none"
       fill="#fbfbfc"
       fill-rule="evenodd" />
    <path
       id="path1"
       d="M4.045 2.677 C 3.239 3.082,2.397 3.973,2.062 4.774 C 1.709 5.621,1.734 14.439,2.092 15.297 C 2.416 16.073,4.132 17.667,4.644 17.667 C 4.715 17.667,4.928 17.835,5.117 18.042 C 5.306 18.248,5.882 18.670,6.397 18.980 C 6.912 19.289,7.333 19.596,7.333 19.661 C 7.333 19.726,7.521 19.865,7.750 19.970 C 7.979 20.074,8.167 20.274,8.167 20.413 C 8.167 20.553,8.256 20.667,8.365 20.667 C 8.676 20.667,9.658 21.388,9.755 21.687 C 9.803 21.836,10.178 22.169,10.588 22.429 C 10.998 22.688,11.333 22.985,11.333 23.089 C 11.333 23.193,11.652 23.531,12.042 23.841 C 12.431 24.151,12.778 24.472,12.812 24.556 C 12.847 24.639,13.245 25.085,13.697 25.547 C 14.149 26.009,14.629 26.599,14.764 26.860 C 14.898 27.120,15.069 27.333,15.143 27.333 C 15.264 27.333,16.180 28.510,16.833 29.505 C 16.971 29.714,17.252 30.037,17.458 30.223 C 17.665 30.408,17.833 30.653,17.833 30.767 C 17.833 30.881,18.079 31.299,18.379 31.696 C 19.142 32.703,20.932 35.665,21.082 36.167 C 21.150 36.396,21.302 36.696,21.419 36.833 C 21.712 37.176,22.667 38.969,22.667 39.175 C 22.667 39.267,23.030 40.109,23.473 41.046 C 23.917 41.983,24.397 43.087,24.541 43.500 C 24.684 43.913,25.064 44.962,25.385 45.833 C 26.225 48.111,27.332 51.982,27.696 53.917 C 27.869 54.833,28.125 56.183,28.265 56.917 C 28.655 58.951,28.662 58.998,28.756 60.333 C 28.804 61.021,28.951 62.596,29.083 63.833 C 29.557 68.279,29.284 73.440,28.553 73.883 C 28.432 73.957,28.333 74.186,28.333 74.393 C 28.333 75.938,24.885 80.360,22.042 82.461 C 21.469 82.885,21.000 83.291,21.000 83.365 C 21.000 83.439,20.896 83.500,20.769 83.500 C 20.641 83.500,20.146 83.769,19.669 84.098 C 18.668 84.786,15.655 86.181,14.324 86.572 C 12.808 87.017,12.923 86.646,12.862 91.285 C 12.785 97.157,12.781 97.135,14.409 98.482 C 15.213 99.148,15.632 99.167,29.281 99.151 C 43.017 99.136,43.299 99.123,44.303 98.455 C 45.605 97.589,47.526 96.518,48.124 96.324 C 48.468 96.212,49.179 95.906,49.704 95.644 C 50.228 95.381,50.779 95.167,50.928 95.167 C 51.077 95.167,51.398 95.061,51.641 94.933 C 51.884 94.804,52.571 94.581,53.167 94.436 C 53.762 94.291,54.813 94.013,55.500 93.817 C 57.914 93.131,61.586 92.575,67.500 91.999 C 69.575 91.797,78.997 91.798,80.917 92.000 C 81.742 92.087,83.167 92.233,84.083 92.324 C 85.000 92.415,86.200 92.571,86.750 92.670 C 87.300 92.768,88.612 92.989,89.667 93.160 C 90.721 93.330,91.996 93.584,92.500 93.722 C 96.813 94.909,96.925 94.944,97.917 95.411 C 99.288 96.056,99.957 96.333,100.143 96.333 C 100.255 96.333,100.550 96.468,100.798 96.632 C 101.315 96.973,101.575 97.132,102.792 97.849 C 103.273 98.133,103.667 98.421,103.667 98.489 C 103.667 98.990,104.660 99.025,118.493 99.008 L 132.417 98.992 133.300 98.386 C 134.644 97.465,134.667 97.363,134.667 92.219 C 134.667 87.327,134.534 86.696,133.500 86.671 C 132.884 86.657,128.966 84.878,127.832 84.098 C 127.354 83.769,126.862 83.500,126.740 83.500 C 126.617 83.500,126.457 83.403,126.383 83.284 C 126.310 83.165,125.800 82.723,125.250 82.303 C 123.413 80.899,120.833 78.097,120.833 77.507 C 120.833 77.412,120.754 77.333,120.658 77.333 C 120.562 77.333,120.404 77.108,120.308 76.833 C 120.212 76.558,120.066 76.333,119.984 76.333 C 119.901 76.333,119.833 76.240,119.832 76.125 C 119.831 76.010,119.646 75.542,119.420 75.083 C 119.195 74.625,119.008 74.156,119.005 74.042 C 119.002 73.927,118.936 73.833,118.859 73.833 C 118.781 73.833,118.711 73.619,118.704 73.358 C 118.696 73.097,118.563 72.443,118.406 71.906 C 118.127 70.944,118.135 64.275,118.417 62.500 C 118.468 62.179,118.539 61.617,118.574 61.250 C 118.723 59.677,118.881 58.631,119.255 56.750 C 119.473 55.650,119.736 54.262,119.839 53.667 C 120.323 50.872,122.733 43.582,124.069 40.871 C 124.398 40.205,124.667 39.583,124.667 39.489 C 124.667 39.396,124.943 38.816,125.281 38.201 C 125.619 37.586,126.044 36.783,126.226 36.417 C 126.747 35.365,128.519 32.475,129.033 31.837 C 129.290 31.518,129.500 31.161,129.500 31.044 C 129.500 30.926,129.706 30.612,129.958 30.346 C 130.210 30.079,130.529 29.694,130.667 29.491 C 131.392 28.415,132.379 27.167,132.503 27.167 C 132.581 27.167,132.687 27.032,132.739 26.867 C 132.792 26.702,133.247 26.127,133.751 25.590 C 134.254 25.053,134.668 24.569,134.671 24.515 C 134.673 24.461,134.973 24.196,135.337 23.926 C 135.702 23.657,136.000 23.343,136.000 23.230 C 136.000 23.117,136.375 22.781,136.833 22.484 C 137.292 22.187,137.667 21.854,137.667 21.745 C 137.667 21.635,137.985 21.330,138.375 21.067 C 138.765 20.804,139.245 20.437,139.443 20.253 C 140.069 19.667,140.380 19.430,141.242 18.884 C 141.705 18.591,142.236 18.197,142.423 18.009 C 142.609 17.821,142.818 17.667,142.888 17.667 C 142.957 17.667,143.217 17.517,143.465 17.334 C 143.915 17.003,144.306 17.002,260.750 17.000 C 332.109 16.998,378.719 16.936,380.500 16.839 C 382.982 16.705,390.425 16.509,393.280 16.502 C 394.736 16.499,394.667 16.825,394.667 10.000 C 394.667 2.810,394.959 3.512,391.946 3.469 C 390.738 3.452,389.525 3.425,389.250 3.409 C 388.576 3.370,375.529 3.204,356.833 2.996 C 348.354 2.901,334.892 2.741,326.917 2.640 C 317.516 2.521,258.321 2.433,158.583 2.389 L 4.750 2.322 4.045 2.677 M103.708 14.452 L 106.500 14.546 106.500 21.106 L 106.500 27.667 98.708 27.669 C 94.423 27.670,90.748 27.716,90.542 27.772 L 90.167 27.872 90.167 46.653 L 90.167 65.435 90.708 65.958 C 93.902 69.046,98.531 67.534,100.527 62.751 C 101.633 60.101,102.132 59.619,103.771 59.619 C 106.742 59.619,107.037 63.127,104.671 70.338 C 100.383 83.410,86.142 86.847,79.833 76.333 L 79.083 75.083 79.053 51.583 C 79.036 38.658,79.017 27.987,79.011 27.870 C 78.991 27.486,65.269 27.659,64.881 28.047 C 64.574 28.354,64.442 39.735,64.357 73.375 L 64.333 82.500 58.500 82.500 L 52.667 82.500 52.667 55.429 C 52.667 24.367,52.879 27.720,50.926 27.900 C 48.967 28.080,47.575 28.493,44.060 29.935 C 42.997 30.372,40.632 31.725,39.018 32.821 C 38.103 33.443,37.194 34.342,36.306 35.503 C 35.203 36.947,35.541 34.431,36.915 30.974 C 40.823 21.139,45.144 16.486,51.843 14.900 C 53.515 14.504,94.706 14.148,103.708 14.452 "
       stroke="none"
       fill="#646cfc"
       fill-rule="evenodd" />
  </g>
</svg>
